<?xml version="1.0" standalone="no"?>
<!DOCTYPE svg PUBLIC "-//W3C//DTD SVG 20010904//EN"
 "http://www.w3.org/TR/2001/REC-SVG-20010904/DTD/svg10.dtd">
<svg version="1.0" xmlns="http://www.w3.org/2000/svg"
 width="709.000000pt" height="709.000000pt" viewBox="0 0 709.000000 709.000000"
 preserveAspectRatio="xMidYMid meet">
<metadata>
Created by potrace 1.11, written by Peter Selinger 2001-2013
</metadata>
<g transform="translate(0.000000,709.000000) scale(0.100000,-0.100000)"
fill="#000000" stroke="none">
<path d="M0 3545 l0 -2385 80 0 c44 0 88 4 98 10 9 5 44 18 77 29 75 24 385
131 615 211 96 34 200 70 230 80 30 10 168 57 305 105 138 48 288 99 335 115
47 16 164 56 260 90 96 34 200 70 230 80 30 10 147 51 260 90 113 39 250 86
305 105 55 18 192 66 305 105 113 39 230 80 260 90 30 10 147 51 260 90 113
39 250 87 305 105 55 19 192 66 305 105 113 39 230 80 260 90 30 10 147 51
260 90 200 70 499 173 610 210 30 10 147 51 260 90 113 39 230 80 260 90 30
10 147 51 260 90 113 39 250 87 305 105 55 19 192 66 305 105 113 39 234 81
269 93 74 25 87 42 39 52 -29 6 -3861 1281 -3953 1315 -11 4 -42 15 -70 23
-49 15 -100 33 -140 47 -11 4 -180 60 -375 124 -195 65 -364 121 -375 125 -34
14 -149 53 -170 58 -11 3 -29 8 -40 12 -11 5 -58 20 -105 35 -47 15 -94 31
-105 35 -11 5 -38 14 -60 20 -22 7 -69 23 -105 35 -36 13 -117 40 -180 60 -63
21 -124 41 -135 46 -11 4 -42 15 -70 23 -46 14 -151 49 -200 67 -90 33 -154
53 -178 57 -15 3 -30 9 -33 14 -3 5 -12 9 -21 9 -9 0 -59 15 -112 34 -53 18
-118 40 -146 49 -27 9 -84 28 -125 43 -41 14 -88 30 -105 34 -16 4 -68 21
-115 38 -47 16 -97 33 -112 36 l-28 6 0 -2385z"/>
</g>
</svg>
